/* These tunes were all adapted by myself from
 * music sheets found in the internet.
 * Just like the rest of the code,
 * feel free to use them in whatever way you'd like,
 * just be sure to place a copy of the license in your project.
 */

int hpTheme[] = {
  REST, NOTE_B4,
  NOTE_E4, NOTE_G4, NOTE_FS4,
  NOTE_E4, NOTE_B5,
  NOTE_A5,
  NOTE_FS4,
  NOTE_E4, NOTE_G4, NOTE_FS4,
  NOTE_DS4, NOTE_F4,
  NOTE_B4,
  REST, REST, NOTE_B4,
  NOTE_E4, NOTE_G4, NOTE_FS4,
  NOTE_E4, NOTE_B5,
  NOTE_D5, NOTE_CS5,
  NOTE_C5, NOTE_GS4,
  NOTE_C5, NOTE_B5, NOTE_AS5,
  NOTE_AS4, NOTE_G4,
  NOTE_E4,
  REST, NOTE_G4,
  NOTE_B5, NOTE_G4,
  NOTE_B5, NOTE_G4,
  NOTE_C5, NOTE_B5,
  NOTE_AS5, NOTE_FS4,
  NOTE_G4, NOTE_B5, NOTE_AS5,
  NOTE_AS4, NOTE_A4,
  NOTE_B5,
  REST, NOTE_G4,
  NOTE_B5, NOTE_G4,
  NOTE_B5, NOTE_G4,
  NOTE_D5, NOTE_CS5,
  NOTE_C5, NOTE_GS4,
  NOTE_C5, NOTE_B5, NOTE_AS5,
  NOTE_AS4, NOTE_G4,
  NOTE_E4
};

int hpTempo[] = {
  2, 4,
  3, 6, 4,
  2, 4,
  1,
  1,
  3, 6, 4,
  2, 4,
  1,
  4, 4, 4,
  3, 6, 4,
  2, 4,
  2, 4,
  2, 4,
  3, 6, 4,
  2, 4,
  1,
  2, 4,
  2, 4,
  2, 4,
  2, 4,
  2, 4,
  3, 6, 4,
  2, 4,
  1,
  2, 4,
  2, 4,
  2, 4,
  2, 4,
  2, 4,
  3, 6, 4,
  2, 4,
  1
};

int marioTheme[] = {
  NOTE_E5, NOTE_E5, REST, NOTE_E5, REST, NOTE_C5, NOTE_E5, REST,
  NOTE_G5, REST, NOTE_G4, REST,
  NOTE_C5, REST, NOTE_G4, REST, NOTE_E4,
  REST, NOTE_A4, REST, NOTE_B4, REST, NOTE_AS4, NOTE_A4,
  NOTE_G4, NOTE_E5, NOTE_G5, NOTE_A5, REST, NOTE_F5, NOTE_G5,
  REST, NOTE_E5, REST, NOTE_C5, NOTE_D5, NOTE_B4, REST,
  NOTE_C5, REST, NOTE_G4, REST, NOTE_E4,
  REST, NOTE_A4, REST, NOTE_B4, REST, NOTE_AS4, NOTE_A4,
  NOTE_G4, NOTE_E5, NOTE_G5, NOTE_A5, REST, NOTE_F5, NOTE_G5,
  REST, NOTE_E5, REST, NOTE_C5, NOTE_D5, NOTE_B4, REST,
  REST, NOTE_G5, NOTE_FS5, NOTE_F5, NOTE_DS5, REST, NOTE_E5,
  REST, NOTE_G4, NOTE_A4, NOTE_C5, REST, NOTE_A4, NOTE_C5, NOTE_D5,
  REST, NOTE_G5, NOTE_FS5, NOTE_F5, NOTE_DS5, REST, NOTE_E5,
  REST, NOTE_C6, REST, NOTE_C6, NOTE_C6, REST,
  REST, NOTE_G5, NOTE_FS5, NOTE_F5, NOTE_DS5, REST, NOTE_E5,
  REST, NOTE_G4, NOTE_A4, NOTE_C5, REST, NOTE_A4, NOTE_C5, NOTE_D5,
  REST, NOTE_DS5, REST, NOTE_D5, REST,
  NOTE_C5, REST, REST,
  NOTE_C5, NOTE_C5, NOTE_C5, REST, NOTE_C5, NOTE_D5,
  NOTE_E5, NOTE_C5, NOTE_A4, NOTE_G4, REST,
  NOTE_C5, NOTE_C5, NOTE_C5, REST, NOTE_C5, NOTE_D5, NOTE_E5,
  REST,
  NOTE_C5, NOTE_C5, NOTE_C5, REST, NOTE_C5, NOTE_D5,
  NOTE_E5, NOTE_C5, NOTE_A4, NOTE_G4, REST
};

int marioTempo[] = {
  16, 16, 8, 16, 8, 16, 16, 8,
  8, 4, 8, 4,
  8, 8, 8, 8, 8,
  12, 12, 12, 12, 12, 12, 12,
  12, 12, 12, 12, 12, 12, 12,
  12, 12, 12, 12, 12, 8, 4,
  8, 8, 8, 8, 8,
  12, 12, 12, 12, 12, 12, 12,
  12, 12, 12, 12, 12, 12, 12,
  12, 12, 12, 12, 12, 8, 4,
  8, 14, 14, 14, 14, 14, 14,
  16, 14, 14, 14, 16, 14, 14, 14,
  8, 14, 14, 14, 14, 14, 14,
  14, 14, 14, 14, 14, 4,
  8, 14, 14, 14, 14, 14, 14,
  16, 14, 14, 14, 16, 14, 14, 14,
  4, 8, 8, 8, 8,
  8, 4, 2,
  14, 8, 14, 14, 14, 8,
  14, 8, 14, 8, 4,
  14, 8, 14, 14, 14, 14, 14,
  2,
  14, 8, 14, 14, 14, 8,
  14, 8, 14, 8, 4
};

int pokeIntroTheme[] = {
  NOTE_G3, NOTE_B4, NOTE_D4,
  NOTE_D4, NOTE_F4, NOTE_E4, NOTE_DS4,
  NOTE_D4,
  REST, NOTE_C4, NOTE_B4, NOTE_C4,
  NOTE_G3, NOTE_B4, NOTE_D4,
  REST, NOTE_F4, NOTE_E4, NOTE_F4,
  NOTE_G5, NOTE_AS5, NOTE_G5,
  NOTE_G5, REST, NOTE_A5,
  NOTE_AS5, NOTE_F4, NOTE_F4,
  NOTE_F4, REST, NOTE_AS5, NOTE_A5,
  NOTE_C5, NOTE_G4, NOTE_G4,
  NOTE_G4, REST, NOTE_C5, NOTE_CS5,
  NOTE_D5,
  REST, NOTE_C5, NOTE_C5, NOTE_CS5,
  NOTE_D5,
  REST, NOTE_C5, NOTE_C5, NOTE_B5
};

int pokeIntroTempo[] = {
  3, 8, 2,
  2, 3, 8, 8,
  1,
  4, 4, 4, 4,
  3, 8, 2,
  4, 4, 4, 4,
  3, 8, 2,
  4, 4, 2,
  3, 8, 2,
  4, 4, 4, 4,
  3, 8, 2,
  4, 4, 4, 4,
  1,
  4, 4, 4, 4,
  1,
  4, 4, 4, 4
};

int skyrimTheme[] = {
  REST, NOTE_D4, NOTE_C4,
  NOTE_D4, NOTE_D4, NOTE_C4,
  NOTE_D4, NOTE_C4, NOTE_D4,
  NOTE_E4, NOTE_D4, NOTE_C4, NOTE_B3, NOTE_B3, NOTE_A3,
  NOTE_B3, NOTE_B3, NOTE_A3, NOTE_B3, NOTE_A3, NOTE_B3,
  NOTE_C4, NOTE_D4, NOTE_A3, NOTE_B3,
  NOTE_D4, NOTE_C4,
  NOTE_D4, NOTE_D4, NOTE_C4,
  NOTE_D4, NOTE_C4, NOTE_D4,
  NOTE_E4, NOTE_D4, NOTE_C4, NOTE_B3, NOTE_B3, NOTE_A3,
  NOTE_B3, NOTE_B3, NOTE_A3, NOTE_B3, NOTE_A3, NOTE_B3,
  NOTE_C4, NOTE_D4, NOTE_A3, NOTE_B3,
  NOTE_D4, NOTE_D4, NOTE_D4, NOTE_D4, NOTE_D4, NOTE_D4, NOTE_D4, NOTE_D4, NOTE_D4, NOTE_D4,
  NOTE_C4, NOTE_C4, NOTE_C4, NOTE_B3, NOTE_B3, NOTE_B3,
  NOTE_D4, NOTE_D4, NOTE_D4, NOTE_D4, NOTE_D4, NOTE_D4, NOTE_D4, NOTE_D4, NOTE_D4, NOTE_D4,
  NOTE_C4, NOTE_C4, NOTE_C4, NOTE_B3, NOTE_B3, NOTE_C4,
  NOTE_D4, REST, NOTE_D4, NOTE_E4,
  NOTE_F4, REST, NOTE_F4, NOTE_A4,
  NOTE_E4, REST, NOTE_D4, NOTE_C4,
  NOTE_B3, REST, NOTE_B3, NOTE_C4,
  NOTE_D4, REST, NOTE_D4, NOTE_E4,
  NOTE_F4, REST, NOTE_F4, NOTE_A4,
  NOTE_B4, REST, NOTE_A4, NOTE_C5,
  NOTE_B4, REST, NOTE_B4, NOTE_C5,
  NOTE_D5, NOTE_C5, NOTE_B4,
  NOTE_A4, NOTE_G4, NOTE_F4,
  NOTE_E4, REST, NOTE_E4, NOTE_F4,
  NOTE_E4
};

int skyrimTempo[] = {
  8, 20, 20,
  4, 20, 20,
  4, 20, 20,
  10, 10, 10, 4,  20, 20,
  4, 20, 20, 4, 20, 20,
  10, 10, 10, 4,
  20, 20,
  4, 20, 20,
  4, 20, 20,
  10, 10, 10, 4,  20, 20,
  4, 20, 20, 4, 20, 20,
  10, 10, 10, 3,
  10, 20, 20, 20, 20, 10, 20, 20, 20, 20,
  10, 10, 10, 10, 10, 10,
  10, 20, 20, 20, 20, 10, 20, 20, 20, 20,
  10, 10, 10, 10, 10, 10,
  3, 10, 10, 10,
  3, 10, 10, 10,
  3, 10, 10, 10,
  3, 10, 10, 10,
  3, 10, 10, 10,
  3, 10, 10, 10,
  3, 10, 10, 10,
  3, 10, 10, 10,
  5, 5, 5,
  5, 5, 5,
  3, 10, 10, 10,
  3
};

int zeldaTheme[] = {
//  NOTE_A4, NOTE_A4, NOTE_A4, NOTE_A4, NOTE_A4,                                                          // Intro
//  NOTE_A4, NOTE_G4, NOTE_A4, REST, NOTE_A4, NOTE_A4, NOTE_A4, NOTE_A4,                                  //
//  NOTE_A4, NOTE_G4, NOTE_A4, REST, NOTE_A4, NOTE_A4, NOTE_A4, NOTE_A4,                                  // Doesn't quite fit if
//  NOTE_A4, NOTE_E4, NOTE_E4, NOTE_E4, NOTE_E4, NOTE_E4, NOTE_E4, NOTE_E4, NOTE_E4, NOTE_E4, NOTE_E4,    // played on loop
  REST, NOTE_A4, REST, NOTE_E4, NOTE_A4, NOTE_A4, NOTE_B4, NOTE_C5, NOTE_D5,
  NOTE_E5, NOTE_E5, NOTE_E5, NOTE_F5, NOTE_G5,
  NOTE_A5, NOTE_A5, NOTE_A5, NOTE_G5, NOTE_F5,
  NOTE_G5, REST, NOTE_F5, NOTE_E5, NOTE_E5, REST,
  NOTE_D5, NOTE_D5, NOTE_E5, NOTE_F5, REST, NOTE_E5, NOTE_D5,
  NOTE_C5, REST, NOTE_C5, NOTE_D5, NOTE_E5, REST, NOTE_D5, NOTE_C5,
  NOTE_B4, REST, NOTE_B4, NOTE_C5, NOTE_D5, REST, NOTE_F5, REST,
  NOTE_E5, NOTE_E4, NOTE_E4, NOTE_E4, NOTE_E4, NOTE_E4, NOTE_E4, NOTE_E4, NOTE_E4, NOTE_E4, NOTE_E4,
  REST, NOTE_A4, REST, NOTE_E4, NOTE_A4, NOTE_A4, NOTE_B4, NOTE_C5, NOTE_D5,
  NOTE_E5, NOTE_E5, NOTE_E5, NOTE_F5, NOTE_G5,
  NOTE_A5, NOTE_C6,
  NOTE_B5, NOTE_G5, REST, NOTE_E5,
  NOTE_F5, NOTE_A5,
  NOTE_G5, NOTE_E5, REST, NOTE_E5,
  NOTE_F5, NOTE_A5,
  NOTE_GS5, NOTE_E5, REST, NOTE_CS5,
  NOTE_D5, NOTE_F5,
  NOTE_E5, NOTE_C5, REST, NOTE_A4,
  NOTE_B4, NOTE_B4, NOTE_C5, NOTE_D5, NOTE_F5, REST,
  NOTE_E5, NOTE_E4, NOTE_E4, NOTE_E4, NOTE_E4, NOTE_E4, NOTE_E4, NOTE_E4, NOTE_E4, NOTE_E4, NOTE_E4
};

int zeldaTempo[] = {
//  2, 16, 16, 16, 16,
//  8, 16, 3, 20, 16, 16, 16, 16,
//  8, 16, 3, 20, 16, 16, 16, 16,
//  16, 18, 18, 12, 18, 18, 12, 18, 18, 12, 16,
  16, 8, 16, 4, 16, 20, 20, 20, 20,
  2, 16, 16, 16, 16,
  2, 16, 16, 16, 16,
  10, 16, 16, 2, 10, 12,
  12, 18, 18, 3, 18, 10, 12,
  12, 20, 18, 18, 3, 18, 10, 12,
  12, 20, 18, 18, 3, 18, 10, 12,
  12, 18, 18, 12, 18, 18, 12, 18, 18, 12, 16,
  16, 8, 16, 4, 16, 20, 20, 20, 20,
  2, 16, 16, 16, 16,
  2, 6,
  6, 2, 24, 6,
  2, 6,
  6, 2, 24, 6,
  2, 6,
  6, 2, 24, 6,
  2, 6,
  6, 2, 24, 6,
  12, 18, 18, 3, 10, 12,
  12, 18, 18, 12, 18, 18, 12, 18, 18, 12, 16
};
